<svg xmlns="http://www.w3.org/2000/svg" xmlns:xlink="http://www.w3.org/1999/xlink" viewBox="0 0 476 476"><defs><style>.cls-1{fill:url(#Unbenannter_Verlauf_24);}.cls-2,.cls-3{opacity:0.2;}.cls-2{fill:url(#Unbenannter_Verlauf_65);}.cls-3{fill:url(#Unbenannter_Verlauf_65-2);}.cls-4{fill:#ffd5a3;}.cls-5,.cls-8{fill:#400f12;}.cls-6,.cls-7{fill:none;}.cls-6,.cls-7,.cls-8{stroke:#ffd5a3;stroke-miterlimit:10;}.cls-6{stroke-width:3px;}.cls-9{fill:#2f0b0d;}</style><radialGradient id="Unbenannter_Verlauf_24" cx="238" cy="238" r="219" gradientUnits="userSpaceOnUse"><stop offset="0" stop-color="#fff" stop-opacity="0"/><stop offset="0.51" stop-color="#fff" stop-opacity="0.01"/><stop offset="0.7" stop-color="#fff" stop-opacity="0.03"/><stop offset="0.83" stop-color="#fff" stop-opacity="0.08"/><stop offset="0.94" stop-color="#fff" stop-opacity="0.15"/><stop offset="1" stop-color="#fff" stop-opacity="0.2"/></radialGradient><linearGradient id="Unbenannter_Verlauf_65" x1="-622.81" y1="660.65" x2="-520.77" y2="660.65" gradientTransform="matrix(0.85, 1.29, -0.53, 2.06, 1085.94, -296.48)" gradientUnits="userSpaceOnUse"><stop offset="0" stop-color="#fff" stop-opacity="0"/><stop offset="0.13" stop-color="#fff" stop-opacity="0.1"/><stop offset="0.4" stop-color="#fff" stop-opacity="0.36"/><stop offset="0.78" stop-color="#fff" stop-opacity="0.76"/><stop offset="1" stop-color="#fff"/></linearGradient><linearGradient id="Unbenannter_Verlauf_65-2" x1="-754.57" y1="455.81" x2="-652.54" y2="455.81" gradientTransform="matrix(0.85, 0.36, -0.53, 0.57, 950.56, 90.9)" xlink:href="#Unbenannter_Verlauf_65"/></defs><title>Element 7</title><g id="Ebene_2" data-name="Ebene 2"><g id="Blatt"><path class="cls-1" d="M457,238A218.81,218.81,0,0,1,238,457C117.05,457,19,359,19,238A218.31,218.31,0,0,1,82.33,84q4.15-4.2,8.54-8.18A218.21,218.21,0,0,1,238,19C359,19,457,117.05,457,238Z"/><rect class="cls-2" x="230.36" y="167.41" width="39.9" height="311.47" transform="translate(634.17 463.6) rotate(147.86)"/><rect class="cls-3" x="92.39" y="55.69" width="39.9" height="86.04" transform="translate(259.98 122.52) rotate(147.86)"/><circle class="cls-4" cx="238" cy="238" r="238"/><circle class="cls-5" cx="238.5" cy="238.5" r="218.5"/><path class="cls-4" d="M259.6,59.55c-3.84.42-5.1,1-5.28,3.78-.06,1.92-.18,4.44-.18,10V97.41h-2.28L226.18,66V81c0,5.4.18,8.1.3,9.84.12,3.06,1.62,4,5.94,4.32v1.68H217.84V95.19c3.72-.3,5.16-1.2,5.4-4.14.18-1.92.3-4.62.3-10.08V65.67a5.23,5.23,0,0,0-1.2-4c-1.14-1.5-2.4-1.86-5.34-2.16V57.87h9l25.44,30.18V73.35c0-5.58-.12-8.16-.3-10-.18-2.7-1.56-3.54-6.36-3.84V57.87H259.6Z"/><path class="cls-4" d="M247.12,395.05c-1-4-2.94-7.92-8.22-7.92-4.68,0-6.48,3.3-6.48,6.48,0,4.32,2.88,6.42,7.62,8.82s10.32,5.16,10.32,11.94c0,6.36-5.4,11.4-13.14,11.4a30.41,30.41,0,0,1-9.24-1.86c-.42-1.5-1.2-6.42-1.62-9.24l1.86-.48c1,3.72,3.66,9.36,9.84,9.36,4.56,0,7.2-2.82,7.2-7.14,0-4.5-3.12-6.54-7.74-9-3.9-2.1-9.9-5-9.9-11.88,0-5.76,4.26-10.5,12.18-10.5a54.91,54.91,0,0,1,8.22,1c.24,2.16.48,4.74,1,8.64Z"/><path class="cls-4" d="M421.47,249.33c-.36,1.56-2,7.74-2.58,9.54H389.73v-1.68c5.58-.42,6-1,6-5.88v-23.7c0-5.34-.66-5.64-5.16-6.06v-1.68h18.36c5.64,0,8-.06,8.7-.12.06,1.5.3,6,.54,9.18l-1.8.3a20,20,0,0,0-1.8-4.56c-1-2-2.34-2.4-5.94-2.4h-5.7c-1.86,0-2,.18-2,1.92v13.26h6.66c4.5,0,4.8-.9,5.52-5H415v12.36h-1.86c-.78-4.32-1.26-4.92-5.58-4.92H401v11.94c0,4.2,1.32,4.56,4.32,4.62h5.58c3.66,0,4.26-.54,5.58-2.1a25.73,25.73,0,0,0,3.24-5.52Z"/><path class="cls-4" d="M100.1,221.55c-4.2.6-4.8,1.08-6.42,6-2,6-6.78,21.24-10.08,32h-2c-3.12-9.36-7.14-20.94-10.26-29.82-3.48,10.32-7,20.58-10.14,29.82h-2c-3-10.32-6.42-21.54-9.66-32C48,222.63,47.3,222,43.4,221.55v-1.68H58.22v1.68c-4.44.48-4.56,1.14-3.72,4.14,2.34,8.1,4.74,16.08,7.2,24.54,3.3-9.54,6.9-20,10-29.82h1.92c3.36,10.2,6.72,19.68,10.2,29.88,2.52-8,5.94-18.66,7.26-23.88.9-3.48.42-4.26-4.68-4.86v-1.68H100.1Z"/><circle class="cls-6" cx="238.5" cy="238.5" r="126"/><polygon class="cls-4" points="237.5 241.5 237.5 122.5 223.5 241.5 237.5 241.5"/><polygon class="cls-7" points="237.5 241.5 237.5 122.5 251.5 241.5 237.5 241.5"/><polygon class="cls-4" points="237 237 356 237 237 223 237 237"/><polygon class="cls-7" points="237 237 356 237 237 251 237 237"/><polygon class="cls-4" points="242 238 123 238 242 252 242 238"/><polygon class="cls-7" points="242 238 123 238 242 224 242 238"/><polygon class="cls-4" points="238.5 237.5 238.5 356.5 252.5 237.5 238.5 237.5"/><polygon class="cls-7" points="238.5 237.5 238.5 356.5 224.5 237.5 238.5 237.5"/><polygon class="cls-4" points="235.41 237.74 298.15 175 228.03 230.36 235.41 237.74"/><polygon class="cls-8" points="235.41 237.8 298.15 175.06 242.79 245.18 235.41 237.8"/><polygon class="cls-4" points="238.94 237.91 301.68 300.65 246.32 230.53 238.94 237.91"/><polygon class="cls-8" points="238.88 237.91 301.63 300.65 231.5 245.29 238.88 237.91"/><polygon class="cls-4" points="235.24 243.27 172.5 180.53 227.86 250.65 235.24 243.27"/><polygon class="cls-7" points="235.3 243.27 172.56 180.53 242.68 235.89 235.3 243.27"/><polygon class="cls-4" points="237.77 238.44 175.03 301.18 245.15 245.82 237.77 238.44"/><polygon class="cls-8" points="237.77 238.38 175.03 301.13 230.39 231 237.77 238.38"/><circle class="cls-5" cx="238" cy="238" r="36"/><circle class="cls-4" cx="238" cy="238" r="23"/><path class="cls-4" d="M369,121.64c-1.92.21-2.55.51-2.64,1.89,0,1-.09,2.22-.09,5v12h-1.14l-12.84-15.69v7.5c0,2.7.09,4.05.15,4.92.06,1.53.81,2,3,2.16v.84H348.1v-.84c1.86-.15,2.58-.6,2.7-2.07.09-1,.15-2.31.15-5V124.7a2.61,2.61,0,0,0-.6-2c-.57-.75-1.2-.93-2.67-1.08v-.84h4.5l12.72,15.09v-7.35c0-2.79-.06-4.08-.15-5-.09-1.35-.78-1.77-3.18-1.92v-.84H369Z"/><path class="cls-4" d="M387,135.53c-.18.78-1,3.87-1.29,4.77H371.08v-.84c2.79-.21,3-.48,3-2.94V124.67c0-2.67-.33-2.82-2.58-3v-.84h9.18c2.82,0,4,0,4.35-.06,0,.75.15,3,.27,4.59l-.9.15a10,10,0,0,0-.9-2.28c-.48-1-1.17-1.2-3-1.2h-2.85c-.93,0-1,.09-1,1v6.63H380c2.25,0,2.4-.45,2.76-2.49h.93v6.18h-.93c-.39-2.16-.63-2.46-2.79-2.46h-3.3v6c0,2.1.66,2.28,2.16,2.31h2.79c1.83,0,2.13-.27,2.79-1a12.87,12.87,0,0,0,1.62-2.76Z"/><path class="cls-4" d="M351.94,350.39c-.51-2-1.47-4-4.11-4a3,3,0,0,0-3.24,3.24c0,2.16,1.44,3.21,3.81,4.41s5.16,2.58,5.16,6c0,3.18-2.7,5.7-6.57,5.7a15.21,15.21,0,0,1-4.62-.93c-.21-.75-.6-3.21-.81-4.62l.93-.24c.51,1.86,1.83,4.68,4.92,4.68a3.32,3.32,0,0,0,3.6-3.57c0-2.25-1.56-3.27-3.87-4.5-1.95-1.05-4.95-2.52-4.95-5.94,0-2.88,2.13-5.25,6.09-5.25a27.45,27.45,0,0,1,4.11.51c.12,1.08.24,2.37.48,4.32Z"/><path class="cls-4" d="M371.71,360.53c-.18.78-1,3.87-1.29,4.77H355.84v-.84c2.79-.21,3-.48,3-2.94V349.67c0-2.67-.33-2.82-2.58-3v-.84h9.18c2.82,0,4,0,4.35-.06,0,.75.15,3,.27,4.59l-.9.15a10,10,0,0,0-.9-2.28c-.48-1-1.17-1.2-3-1.2h-2.85c-.93,0-1,.09-1,1v6.63h3.33c2.25,0,2.4-.45,2.76-2.49h.93v6.18h-.93c-.39-2.16-.63-2.46-2.79-2.46h-3.3v6c0,2.1.66,2.28,2.16,2.31h2.79c1.83,0,2.13-.27,2.79-1.05a12.87,12.87,0,0,0,1.62-2.76Z"/><path class="cls-4" d="M108.61,350.39c-.51-2-1.47-4-4.11-4a3,3,0,0,0-3.24,3.24c0,2.16,1.44,3.21,3.81,4.41s5.16,2.58,5.16,6c0,3.18-2.7,5.7-6.57,5.7a15.21,15.21,0,0,1-4.62-.93c-.21-.75-.6-3.21-.81-4.62l.93-.24c.51,1.86,1.83,4.68,4.92,4.68a3.32,3.32,0,0,0,3.6-3.57c0-2.25-1.56-3.27-3.87-4.5-2-1.05-5-2.52-5-5.94,0-2.88,2.13-5.25,6.09-5.25a27.45,27.45,0,0,1,4.11.51c.12,1.08.24,2.37.48,4.32Z"/><path class="cls-4" d="M140.32,346.64c-2.1.3-2.4.54-3.21,3-1,3-3.39,10.62-5,16h-1c-1.56-4.68-3.57-10.47-5.13-14.91-1.74,5.16-3.51,10.29-5.07,14.91h-1c-1.5-5.16-3.21-10.77-4.83-16-.78-2.43-1.11-2.76-3.06-3v-.84h7.41v.84c-2.22.24-2.28.57-1.86,2.07,1.17,4.05,2.37,8,3.6,12.27,1.65-4.77,3.45-10,5-14.91h1c1.68,5.1,3.36,9.84,5.1,14.94,1.26-4,3-9.33,3.63-11.94.45-1.74.21-2.13-2.34-2.43v-.84h6.87Z"/><path class="cls-4" d="M114.81,121.64c-1.92.21-2.55.51-2.64,1.89,0,1-.09,2.22-.09,5v12h-1.14L98.1,124.88v7.5c0,2.7.09,4.05.15,4.92.06,1.53.81,2,3,2.16v.84H93.93v-.84c1.86-.15,2.58-.6,2.7-2.07.09-1,.15-2.31.15-5V124.7a2.61,2.61,0,0,0-.6-2c-.57-.75-1.2-.93-2.67-1.08v-.84H98l12.72,15.09v-7.35c0-2.79-.06-4.08-.15-5-.09-1.35-.78-1.77-3.18-1.92v-.84h7.41Z"/><path class="cls-4" d="M144.42,121.64c-2.1.3-2.4.54-3.21,3-1,3-3.39,10.62-5,16h-1c-1.56-4.68-3.57-10.47-5.13-14.91-1.74,5.16-3.51,10.29-5.07,14.91h-1c-1.5-5.16-3.21-10.77-4.83-16-.78-2.43-1.11-2.76-3.06-3v-.84h7.41v.84c-2.22.24-2.28.57-1.86,2.07,1.17,4.05,2.37,8,3.6,12.27,1.65-4.77,3.45-10,5-14.91h1c1.68,5.1,3.36,9.84,5.1,14.94,1.26-4,3-9.33,3.63-11.94.45-1.74.21-2.13-2.34-2.43v-.84h6.87Z"/><path class="cls-9" d="M238.5,111a1.5,1.5,0,1,1-1.5,1.5,1.5,1.5,0,0,1,1.5-1.5m0-1a2.5,2.5,0,1,0,2.5,2.5,2.5,2.5,0,0,0-2.5-2.5Z"/></g></g></svg>