<?xml version="1.0" encoding="UTF-8" standalone="no"?><!DOCTYPE svg PUBLIC "-//W3C//DTD SVG 1.1//EN" "http://www.w3.org/Graphics/SVG/1.1/DTD/svg11.dtd"><svg width="100%" height="100%" viewBox="0 0 864 832" version="1.1" xmlns="http://www.w3.org/2000/svg" xmlns:xlink="http://www.w3.org/1999/xlink" xml:space="preserve" xmlns:serif="http://www.serif.com/" style="fill-rule:evenodd;clip-rule:evenodd;stroke-linejoin:round;stroke-miterlimit:2;"><path d="M491.229,403.324c-2.824,-1.414 -6.149,-1.41 -8.97,0.009c-41.231,20.743 -355.11,178.655 -449.401,226.093c-5.068,2.55 -8.264,7.742 -8.258,13.415c0.005,5.674 3.212,10.859 8.286,13.399c79.327,39.703 310.06,155.184 345.119,172.731c2.824,1.413 6.149,1.41 8.97,-0.009c42.643,-21.454 376.945,-189.641 458.302,-230.572c3.379,-1.7 5.51,-5.161 5.506,-8.943c-0.004,-3.783 -2.142,-7.239 -5.525,-8.932c-69.13,-34.6 -317.543,-158.93 -354.029,-177.191Z" style="fill:#7f7f7f;"/><path d="M491.229,394.743c-2.824,-1.414 -6.149,-1.41 -8.97,0.009c-41.231,20.743 -355.11,178.656 -449.401,226.093c-5.068,2.55 -8.264,7.742 -8.258,13.415c0.005,5.674 3.212,10.859 8.286,13.399c79.327,39.703 310.06,155.184 345.119,172.731c2.824,1.413 6.149,1.41 8.97,-0.009c42.643,-21.454 376.945,-189.641 458.302,-230.571c3.379,-1.7 5.51,-5.161 5.506,-8.944c-0.004,-3.783 -2.142,-7.239 -5.525,-8.932c-69.13,-34.6 -317.543,-158.93 -354.029,-177.191Z" style="fill:#ededed;"/><path d="M499.555,16.093c-0.016,-3.457 -1.817,-6.66 -4.762,-8.471c-2.946,-1.81 -6.617,-1.971 -9.709,-0.425c-76.193,38.092 -430.791,215.375 -479.526,239.74c-3.404,1.702 -5.546,5.187 -5.528,8.992l1.751,365.997c0.025,5.186 2.726,9.991 7.144,12.707c4.418,2.716 9.925,2.957 14.564,0.638c89.004,-44.498 424.985,-212.473 472.328,-236.142c3.404,-1.701 5.546,-5.187 5.528,-8.992c-0.209,-43.779 -1.464,-306.046 -1.79,-374.044Z" style="fill:#ededed;"/><path d="M505.246,19.686c-0.016,-3.457 -1.818,-6.66 -4.763,-8.471c-2.945,-1.81 -6.616,-1.971 -9.709,-0.425c-76.15,38.071 -430.383,215.171 -479.091,239.523c-3.404,1.701 -5.546,5.187 -5.528,8.992c0.207,43.297 1.436,300.181 1.758,367.406c0.016,3.457 1.817,6.661 4.763,8.471c2.945,1.811 6.616,1.972 9.709,0.426c76.15,-38.072 430.383,-215.171 479.091,-239.523c3.403,-1.702 5.546,-5.188 5.528,-8.993c-0.067,-14.104 -0.226,-47.324 -0.226,-47.324c0,0 -1.211,-253.113 -1.532,-320.082Z"/><g><g><path d="M510.818,395.024c-2.824,-1.414 -6.149,-1.41 -8.97,0.009c-44.946,22.612 -413.905,208.235 -469.937,236.425c-1.352,0.68 -2.204,2.064 -2.203,3.577c0.002,1.513 0.857,2.896 2.21,3.573c46.67,23.358 307.853,154.08 345.365,172.855c2.823,1.413 6.149,1.409 8.97,-0.01c42.696,-21.48 377.793,-190.067 459.256,-231.051c3.379,-1.7 5.509,-5.161 5.505,-8.943c-0.004,-3.783 -2.142,-7.24 -5.524,-8.933c-66.677,-33.371 -299.424,-149.861 -334.672,-167.502Z" style="fill:#9b9b9b;"/><g id="Tastatur"><path d="M109.366,610.288l-19.444,9.782l18.723,9.371l19.444,-9.782l-18.723,-9.371Z" style="fill:#2e2833;"/><path d="M134.164,620.419l-21.526,10.83l28.503,14.266l21.526,-10.83l-28.503,-14.266Z" style="fill:#2e2833;"/><path d="M174.232,633.4l-28.796,14.488l28.229,14.129l28.796,-14.488l-28.229,-14.129Z" style="fill:#2e2833;"/><path d="M213.705,645.52l-36.075,18.149l28.23,14.129l36.074,-18.149l-28.229,-14.129Z" style="fill:#2e2833;"/><path d="M257.759,655.984l-47.368,23.83l28.23,14.129l47.367,-23.831l-28.229,-14.128Z" style="fill:#2e2833;"/><path d="M271.935,682.641l-28.395,14.286l32.009,16.02l28.395,-14.286l-32.009,-16.02Z" style="fill:#2e2833;"/><path d="M297.015,670.023l-21.768,10.952l32.009,16.02l21.768,-10.951l-32.009,-16.021Z" style="fill:#2e2833;"/><path d="M322.484,657.21l-21.767,10.951l32.008,16.021l21.768,-10.952l-32.009,-16.02Z" style="fill:#2e2833;"/><path d="M347.174,644.788l-21.638,10.886l32.009,16.021l21.638,-10.886l-32.009,-16.021Z" style="fill:#2e2833;"/><path d="M472.714,581.629l-121.708,61.232l32.009,16.02l121.708,-61.231l-32.009,-16.021Z" style="fill:#2e2833;"/><path d="M580.263,598.969c-11.295,-5.653 -24.597,-5.64 -35.88,0.037c-27.789,13.98 -80.934,40.718 -108.645,54.659c-3.379,1.7 -5.509,5.161 -5.505,8.944c0.004,3.782 2.141,7.239 5.524,8.932c20.548,10.284 54.134,27.093 74.736,37.405c11.295,5.653 24.597,5.639 35.88,-0.037c27.788,-13.981 80.934,-40.718 108.644,-54.659c3.379,-1.7 5.51,-5.161 5.506,-8.944c-0.004,-3.782 -2.142,-7.239 -5.524,-8.932c-20.549,-10.284 -54.134,-27.094 -74.736,-37.405Z" style="fill:#2e2833;fill-opacity:0.4;"/><path d="M497.985,568.916l-21.711,10.922l32.009,16.021l21.711,-10.923l-32.009,-16.02Z" style="fill:#2e2833;"/><path d="M523.184,556.238l-21.711,10.923l32.009,16.02l21.711,-10.923l-32.009,-16.02Z" style="fill:#2e2833;"/><path d="M555.163,540.15l-28.564,14.37l32.009,16.02l28.564,-14.37l-32.009,-16.02Z" style="fill:#2e2833;"/><path d="M580.34,527.483l-21.863,10.999l32.009,16.021l21.863,-11l-32.009,-16.02Z" style="fill:#2e2833;"/><path d="M630.288,502.354l-21.863,10.999l32.009,16.021l21.863,-11l-32.009,-16.02Z" style="fill:#2e2833;"/><path d="M605.72,514.714l-21.863,11l13.972,6.993l21.863,-11l-13.972,-6.993Z" style="fill:#2e2833;"/><path d="M621.724,522.724l-21.863,11l16.005,8.01l21.863,-10.999l-16.005,-8.011Z" style="fill:#2e2833;"/><path d="M283.129,643.22l-21.8,10.967l28.23,14.129l21.799,-10.967l-28.229,-14.129Z" style="fill:#2e2833;"/><path d="M308.59,630.41l-21.799,10.968l28.229,14.129l21.8,-10.968l-28.23,-14.129Z" style="fill:#2e2833;"/><path d="M333.564,617.846l-21.799,10.967l28.229,14.129l21.8,-10.967l-28.23,-14.129Z" style="fill:#2e2833;"/><path d="M358.416,605.343l-21.799,10.967l28.23,14.129l21.799,-10.967l-28.23,-14.129Z" style="fill:#2e2833;"/><path d="M383.39,592.778l-21.799,10.968l28.23,14.129l21.799,-10.968l-28.23,-14.129Z" style="fill:#2e2833;"/><path d="M408.608,580.091l-21.799,10.968l28.229,14.129l21.8,-10.968l-28.23,-14.129Z" style="fill:#2e2833;"/><path d="M434.053,567.29l-21.799,10.967l28.23,14.129l21.799,-10.967l-28.23,-14.129Z" style="fill:#2e2833;"/><path d="M459.149,554.664l-21.799,10.967l28.23,14.129l21.799,-10.967l-28.23,-14.129Z" style="fill:#2e2833;"/><path d="M459.149,554.664l-21.799,10.967l28.23,14.129l21.799,-10.967l-28.23,-14.129Z" style="fill:#2e2833;"/><path d="M484.245,542.039l-21.799,10.967l28.229,14.129l21.8,-10.968l-28.23,-14.128Z" style="fill:#2e2833;"/><path d="M509.655,529.255l-21.799,10.967l28.23,14.129l21.799,-10.967l-28.23,-14.129Z" style="fill:#2e2833;"/><path d="M571.662,498.059l-58.956,29.661l28.23,14.129l58.956,-29.661l-28.23,-14.129Z" style="fill:#2e2833;"/><path d="M596.448,485.589l-21.347,10.74l28.229,14.129l21.348,-10.74l-28.23,-14.129Z" style="fill:#2e2833;"/><path d="M238.408,633.092l-21.738,10.936l28.23,14.129l21.737,-10.936l-28.229,-14.129Z" style="fill:#2e2833;"/><path d="M263.552,620.442l-21.738,10.936l28.23,14.129l21.738,-10.936l-28.23,-14.129Z" style="fill:#2e2833;"/><path d="M288.475,607.903l-21.737,10.936l28.229,14.129l21.738,-10.936l-28.23,-14.129Z" style="fill:#2e2833;"/><path d="M313.564,595.281l-21.738,10.936l28.23,14.129l21.738,-10.936l-28.23,-14.129Z" style="fill:#2e2833;"/><path d="M338.675,582.647l-21.737,10.937l28.229,14.129l21.738,-10.937l-28.23,-14.129Z" style="fill:#2e2833;"/><path d="M363.378,570.219l-21.737,10.937l28.229,14.128l21.738,-10.936l-28.23,-14.129Z" style="fill:#2e2833;"/><path d="M388.787,557.436l-21.738,10.936l28.23,14.129l21.738,-10.936l-28.23,-14.129Z" style="fill:#2e2833;"/><path d="M414.314,544.594l-21.738,10.936l28.23,14.129l21.738,-10.936l-28.23,-14.129Z" style="fill:#2e2833;"/><path d="M439.53,531.908l-21.738,10.936l28.229,14.129l21.738,-10.936l-28.229,-14.129Z" style="fill:#2e2833;"/><path d="M464.745,519.222l-21.738,10.936l28.23,14.129l21.738,-10.936l-28.23,-14.129Z" style="fill:#2e2833;"/><path d="M489.8,506.617l-21.738,10.936l28.23,14.129l21.738,-10.936l-28.23,-14.129Z" style="fill:#2e2833;"/><path d="M539.268,481.73l-45.99,23.137l28.229,14.129l45.99,-23.137l-28.229,-14.129Z" style="fill:#2e2833;"/><path d="M564.001,469.286l-21.411,10.772l28.23,14.129l21.411,-10.772l-28.23,-14.129Z" style="fill:#2e2833;"/><path d="M199.562,620.657l-22.076,11.106l28.23,14.129l22.076,-11.106l-28.23,-14.129Z" style="fill:#2e2833;"/><path d="M224.375,608.173l-22.076,11.107l28.23,14.128l22.076,-11.106l-28.23,-14.129Z" style="fill:#2e2833;"/><path d="M249.499,595.534l-22.076,11.106l28.23,14.129l22.075,-11.106l-28.229,-14.129Z" style="fill:#2e2833;"/><path d="M274.837,582.786l-22.076,11.106l28.23,14.129l22.075,-11.106l-28.229,-14.129Z" style="fill:#2e2833;"/><path d="M299.893,570.18l-22.076,11.107l28.23,14.129l22.075,-11.107l-28.229,-14.129Z" style="fill:#2e2833;"/><path d="M324.959,557.57l-22.076,11.106l28.23,14.129l22.075,-11.106l-28.229,-14.129Z" style="fill:#2e2833;"/><path d="M350.19,544.876l-22.076,11.106l28.23,14.129l22.076,-11.106l-28.23,-14.129Z" style="fill:#2e2833;"/><path d="M375.387,532.199l-22.076,11.107l28.23,14.129l22.076,-11.107l-28.23,-14.129Z" style="fill:#2e2833;"/><path d="M400.584,519.523l-22.076,11.106l28.23,14.129l22.076,-11.106l-28.23,-14.129Z" style="fill:#2e2833;"/><path d="M425.852,506.811l-22.076,11.106l28.23,14.129l22.075,-11.106l-28.229,-14.129Z" style="fill:#2e2833;"/><path d="M451.119,494.099l-22.075,11.106l28.229,14.129l22.076,-11.107l-28.23,-14.128Z" style="fill:#2e2833;"/><path d="M475.822,481.67l-22.075,11.107l28.229,14.129l22.076,-11.107l-28.23,-14.129Z" style="fill:#2e2833;"/><path d="M507.301,465.834l-27.934,14.053l28.23,14.129l27.934,-14.053l-28.23,-14.129Z" style="fill:#2e2833;"/><path d="M532.074,453.37l-21.347,10.74l28.229,14.129l21.348,-10.74l-28.23,-14.129Z" style="fill:#2e2833;"/><path d="M159.002,607.924l-21.527,10.83l28.503,14.265l21.527,-10.83l-28.503,-14.265Z" style="fill:#2e2833;"/><path d="M183.839,595.428l-21.526,10.83l28.503,14.266l21.526,-10.83l-28.503,-14.266Z" style="fill:#2e2833;"/><path d="M209.04,582.749l-21.526,10.83l28.503,14.266l21.526,-10.83l-28.503,-14.266Z" style="fill:#2e2833;"/><path d="M233.878,570.254l-21.527,10.83l28.503,14.265l21.527,-10.83l-28.503,-14.265Z" style="fill:#2e2833;"/><path d="M259.079,557.575l-21.527,10.83l28.503,14.266l21.527,-10.83l-28.503,-14.266Z" style="fill:#2e2833;"/><path d="M284.643,544.714l-21.526,10.83l28.503,14.265l21.526,-10.83l-28.503,-14.265Z" style="fill:#2e2833;"/><path d="M309.481,532.218l-21.527,10.83l28.503,14.266l21.527,-10.83l-28.503,-14.266Z" style="fill:#2e2833;"/><path d="M335.045,519.356l-21.526,10.83l28.503,14.266l21.526,-10.83l-28.503,-14.266Z" style="fill:#2e2833;"/><path d="M360.246,506.678l-21.526,10.83l28.503,14.265l21.526,-10.829l-28.503,-14.266Z" style="fill:#2e2833;"/><path d="M385.568,493.938l-21.526,10.83l28.503,14.266l21.526,-10.83l-28.503,-14.266Z" style="fill:#2e2833;"/><path d="M410.648,481.321l-21.526,10.83l28.503,14.265l21.526,-10.83l-28.503,-14.265Z" style="fill:#2e2833;"/><path d="M435.462,468.837l-21.527,10.83l28.503,14.266l21.527,-10.83l-28.503,-14.266Z" style="fill:#2e2833;"/><path d="M474.232,449.332l-35.329,17.773l28.504,14.266l35.328,-17.774l-28.503,-14.265Z" style="fill:#2e2833;"/><path d="M498.743,437l-21.061,10.596l28.503,14.266l21.061,-10.596l-28.503,-14.266Z" style="fill:#2e2833;"/><path d="M132.023,598.889l-19.444,9.783l18.723,9.371l19.444,-9.783l-18.723,-9.371Z" style="fill:#2e2833;"/><path d="M154.801,587.43l-19.444,9.782l18.723,9.371l19.444,-9.782l-18.723,-9.371Z" style="fill:#2e2833;"/><path d="M178.063,575.727l-19.444,9.782l18.723,9.371l19.444,-9.782l-18.723,-9.371Z" style="fill:#2e2833;"/><path d="M200.478,564.45l-19.444,9.782l18.723,9.371l19.444,-9.782l-18.723,-9.371Z" style="fill:#2e2833;"/><path d="M223.668,552.783l-19.444,9.782l18.723,9.371l19.444,-9.782l-18.723,-9.371Z" style="fill:#2e2833;"/><path d="M246.616,541.238l-19.444,9.782l18.723,9.371l19.444,-9.782l-18.723,-9.371Z" style="fill:#2e2833;"/><path d="M269.086,529.933l-19.444,9.783l18.723,9.371l19.444,-9.783l-18.723,-9.371Z" style="fill:#2e2833;"/><path d="M292.37,518.219l-19.444,9.782l18.723,9.371l19.444,-9.782l-18.723,-9.371Z" style="fill:#2e2833;"/><path d="M315,506.834l-19.444,9.782l18.723,9.371l19.444,-9.782l-18.723,-9.371Z" style="fill:#2e2833;"/><path d="M338.448,495.037l-19.444,9.782l18.723,9.371l19.444,-9.782l-18.723,-9.371Z" style="fill:#2e2833;"/><path d="M361.226,483.578l-19.444,9.782l18.723,9.371l19.444,-9.783l-18.723,-9.37Z" style="fill:#2e2833;"/><path d="M384.586,471.825l-19.444,9.783l18.723,9.371l19.444,-9.783l-18.723,-9.371Z" style="fill:#2e2833;"/><path d="M407.363,460.366l-19.444,9.782l18.724,9.371l19.444,-9.782l-18.724,-9.371Z" style="fill:#2e2833;"/><path d="M429.947,449.004l-19.444,9.782l18.724,9.371l19.444,-9.782l-18.724,-9.371Z" style="fill:#2e2833;"/><path d="M452.047,437.886l-19.444,9.782l18.723,9.371l19.444,-9.782l-18.723,-9.371Z" style="fill:#2e2833;"/><path d="M476.519,425.574l-21.148,10.639l18.724,9.371l21.147,-10.639l-18.723,-9.371Z" style="fill:#2e2833;"/></g></g></g><g id="Screen"><path d="M24.014,259.156l0,357.771l465.102,-232.551l0,-107.331l0,-250.44l-465.102,232.551Z" style="fill:#282c34;"/><path d="M238.676,243.504c0,-3.702 -2.405,-5.506 -5.366,-4.025l-159.209,79.604c-2.961,1.481 -5.366,5.689 -5.366,9.391c0,3.703 2.405,5.506 5.366,4.025l159.209,-79.604c2.961,-1.481 5.366,-5.689 5.366,-9.391Z" style="fill:#dcdfe4;"/><path d="M207.371,281.517c0,-3.702 -2.405,-5.506 -5.366,-4.025l-127.904,63.952c-2.961,1.481 -5.366,5.689 -5.366,9.391c0,3.703 2.405,5.506 5.366,4.025l127.904,-63.951c2.961,-1.481 5.366,-5.69 5.366,-9.392Z" style="fill:#61afef;"/><path d="M153.706,330.711c0,-3.703 -2.405,-5.506 -5.367,-4.025l-74.238,37.118c-2.961,1.481 -5.366,5.689 -5.366,9.392c0,3.702 2.405,5.506 5.366,4.025l74.238,-37.119c2.962,-1.481 5.367,-5.689 5.367,-9.391Z" style="fill:#e06c75;"/><path d="M257.683,278.722c0,-3.702 -2.405,-5.506 -5.367,-4.025l-72.001,36.001c-2.962,1.481 -5.367,5.689 -5.367,9.391c0,3.703 2.405,5.506 5.367,4.025l72.001,-36.001c2.962,-1.48 5.367,-5.689 5.367,-9.391Z" style="fill:#98c379;"/><path d="M305.758,232.324c0,-3.703 -2.405,-5.506 -5.366,-4.025l-70.884,35.441c-2.962,1.481 -5.366,5.689 -5.366,9.392c0,3.702 2.404,5.506 5.366,4.025l70.884,-35.442c2.961,-1.481 5.366,-5.689 5.366,-9.391Z" style="fill:#e5c07b;"/><path d="M401.909,184.248c0,-3.702 -2.405,-5.506 -5.367,-4.025l-67.529,33.765c-2.962,1.481 -5.366,5.689 -5.366,9.391c0,3.703 2.404,5.506 5.366,4.025l67.529,-33.764c2.962,-1.481 5.367,-5.69 5.367,-9.392Z" style="fill:#98c379;"/><path d="M176.066,364.252c0,-3.703 -2.404,-5.506 -5.366,-4.025l-96.599,48.299c-2.961,1.481 -5.366,5.689 -5.366,9.391c0,3.703 2.405,5.506 5.366,4.025l96.599,-48.299c2.962,-1.481 5.366,-5.689 5.366,-9.391Z" style="fill:#e06c75;"/><path d="M360.542,269.778c0,-3.703 -2.405,-5.506 -5.367,-4.025l-156.972,78.486c-2.962,1.481 -5.366,5.689 -5.366,9.391c0,3.703 2.404,5.506 5.366,4.025l156.972,-78.486c2.962,-1.481 5.367,-5.689 5.367,-9.391Z" style="fill:#61afef;"/><path d="M258.801,345.245c0,-3.702 -2.405,-5.506 -5.367,-4.025l-179.333,89.666c-2.961,1.481 -5.366,5.69 -5.366,9.392c0,3.702 2.405,5.506 5.366,4.025l179.333,-89.667c2.962,-1.48 5.367,-5.689 5.367,-9.391Z" style="fill:#e5c07b;"/><path d="M303.522,345.245c0,-3.702 -2.405,-5.506 -5.367,-4.025l-179.332,89.666c-2.962,1.481 -5.367,5.69 -5.367,9.392c0,3.702 2.405,5.506 5.367,4.025l179.332,-89.667c2.962,-1.48 5.367,-5.689 5.367,-9.391Z" style="fill:#61afef;"/><path d="M258.801,389.966c0,-3.702 -2.405,-5.506 -5.367,-4.025l-98.834,49.418c-2.962,1.48 -5.367,5.689 -5.367,9.391c0,3.702 2.405,5.506 5.367,4.025l98.834,-49.417c2.962,-1.481 5.367,-5.689 5.367,-9.392Z" style="fill:#e06c75;"/><path d="M167.122,476.055c0,-3.702 -2.405,-5.506 -5.367,-4.025l-87.654,43.827c-2.961,1.481 -5.366,5.689 -5.366,9.391c0,3.703 2.405,5.506 5.366,4.025l87.654,-43.827c2.962,-1.48 5.367,-5.689 5.367,-9.391Z" style="fill:#61afef;"/><path d="M351.598,383.683c0,-3.628 -2.357,-5.396 -5.26,-3.944l-157.186,78.593c-2.903,1.451 -5.26,5.575 -5.26,9.204l0,0.268c0,3.628 2.357,5.396 5.26,3.944l157.186,-78.593c2.903,-1.451 5.26,-5.575 5.26,-9.204l0,-0.268Z" style="fill:#dcdfe4;"/></g><path d="M258.738,130.438c1.757,-0.669 3.743,0.259 4.432,2.07c0.688,1.812 -0.179,3.824 -1.936,4.493c-1.758,0.668 -3.743,-0.26 -4.432,-2.071c-0.689,-1.811 0.179,-3.824 1.936,-4.492Z" style="fill:#d6d6d6;"/></svg>