<svg xmlns="http://www.w3.org/2000/svg" xmlns:xlink="http://www.w3.org/1999/xlink" width="627.093" height="547.495" viewBox="0 0 627.093 547.495"><defs><style>.a{fill:#5da57a;}.b{fill:url(#a);}.c{fill:url(#b);}.d{fill:url(#c);}.e{fill:url(#d);}.f{fill:url(#e);}.g{fill:url(#f);}.h{fill:url(#g);}.i{fill:url(#h);}.j{fill:url(#i);}.k{fill:url(#j);}.l{fill:url(#k);}.m{fill:url(#l);}.n{fill:#2f644a;}</style><linearGradient id="a" x1="0.363" y1="-0.223" x2="0.637" y2="1.051" gradientUnits="objectBoundingBox"><stop offset="0" stop-color="#14483c"/><stop offset="0.42" stop-color="#0c2c25" stop-opacity="0.612"/><stop offset="1" stop-opacity="0"/></linearGradient><linearGradient id="b" x1="-0.064" y1="0.306" x2="1.063" y2="0.694" gradientUnits="objectBoundingBox"><stop offset="0" stop-color="#14483c"/><stop offset="0.1" stop-color="#113e33" stop-opacity="0.859"/><stop offset="0.48" stop-color="#081c17" stop-opacity="0.388"/><stop offset="0.79" stop-color="#020706" stop-opacity="0.102"/><stop offset="1" stop-opacity="0"/></linearGradient><linearGradient id="c" x1="0.385" y1="-0.3" x2="0.615" y2="1.051" xlink:href="#a"/><linearGradient id="d" y1="0.499" x2="0.999" y2="0.499" gradientUnits="objectBoundingBox"><stop offset="0" stop-color="#14483c"/><stop offset="0" stop-color="#14483c" stop-opacity="0.988"/><stop offset="0.44" stop-color="#09211b" stop-opacity="0.459"/><stop offset="0.79" stop-color="#020907" stop-opacity="0.122"/><stop offset="1" stop-opacity="0"/></linearGradient><linearGradient id="e" x1="0.5" x2="0.5" y2="0.999" gradientUnits="objectBoundingBox"><stop offset="0" stop-color="#14483c"/><stop offset="1" stop-opacity="0"/></linearGradient><linearGradient id="f" x1="0.088" y1="0.585" x2="0.911" y2="0.416" gradientUnits="objectBoundingBox"><stop offset="0" stop-color="#14483c"/><stop offset="0.03" stop-color="#13453a" stop-opacity="0.961"/><stop offset="0.45" stop-color="#09201a" stop-opacity="0.439"/><stop offset="0.79" stop-color="#020907" stop-opacity="0.122"/><stop offset="1" stop-opacity="0"/></linearGradient><linearGradient id="g" x1="0.499" x2="0.499" y2="0.999" gradientUnits="objectBoundingBox"><stop offset="0" stop-color="#14483c"/><stop offset="0.36" stop-color="#0b2922" stop-opacity="0.561"/><stop offset="0.77" stop-color="#030b09" stop-opacity="0.149"/><stop offset="1" stop-opacity="0"/></linearGradient><linearGradient id="h" x1="0.502" y1="-0.001" x2="0.502" y2="1" gradientUnits="objectBoundingBox"><stop offset="0" stop-color="#14483c"/><stop offset="0.64" stop-color="#071b16" stop-opacity="0.369"/><stop offset="1" stop-opacity="0"/></linearGradient><linearGradient id="i" x1="0.502" y1="-0.001" x2="0.502" y2="0.999" xlink:href="#g"/><linearGradient id="j" x1="-0.001" y1="0.5" x2="0.999" y2="0.5" gradientUnits="objectBoundingBox"><stop offset="0" stop-color="#14483c"/><stop offset="0.33" stop-color="#0c2c25" stop-opacity="0.612"/><stop offset="0.76" stop-color="#030c0a" stop-opacity="0.169"/><stop offset="1" stop-opacity="0"/></linearGradient><linearGradient id="k" x1="-0.002" y1="0.496" x2="0.995" y2="0.496" xlink:href="#j"/><linearGradient id="l" x1="0" y1="0.498" x2="0.999" y2="0.498" xlink:href="#j"/></defs><g transform="translate(313.547 273.747)"><g transform="translate(-313.547 -273.747)"><path class="a" d="M108.408,0S280.26,152.131,357.59,160.467s181.223,181.28,181.223,181.28S581.244,414.076,607,413.271l-8.337,26.562S423.593,197.666,375.873,183.753C256.112,148.853,97.312,26.62,90.7,0" transform="translate(-38.552)"/><path class="b" d="M669.1,385.6l31.967,6.612,13.224,15.466-20.123,4.6Z" transform="translate(-284.404 -163.901)"/><path class="c" d="M484.373,270.02S471.15,254.9,467.7,248l4.025,1.725L509.1,280.2Z" transform="translate(-198.798 -105.413)"/><path class="d" d="M168.3,81.9s29.092,7.129,42.258,9.889l12.016,9.142-23,6.324Z" transform="translate(-71.537 -34.812)"/><path class="a" d="M144.7,0s29.9,105.043,102.628,110.735S465.52,178.578,465.52,219,406.53,349.912,522.9,356.409s165.7-25.873,165.7-25.873-179.44,33.117-208.533,4.83,12.936-75.95,3.22-129.305S363.7,138.217,342.711,119.589s-101.823-8.912-119.589-35.532S177.012,73.536,157.636,0" transform="translate(-61.505)"/><path class="a" d="M32.944,0s86.989,61.749,136.377,52.665,99.638,89.749,99.638,89.749,16.443,39.5,79.055,54.332S455.874,204.968,473.18,247s-29.667,74.4,75.72,143.794v18.686s-96.361-70.258-94.694-116.369,3.277-58.472-19.778-61.749-146.554-26.333-161.387-56.8S208.82,65.889,193.182,65.889,13.454,37.026,0,0"/><path class="a" d="M161.192,0s49.848,68.419,56.747,117.289-109.24,90.266-96.016,161.56,83.942,62.094,114.989,123.038,12.649,111.539,12.649,111.539,29.322-70.718,0-112.689S130.548,317.37,130.548,280c0-72.443,102.915-127.063,100.615-162.135S191.664,12.074,168.839,0" transform="translate(-51.378)"/><path class="e" d="M206.332,85.542A83.183,83.183,0,0,1,198.8,76.4l14.086,4.715,5.519,7.244Z" transform="translate(-84.501 -32.474)"/><path class="f" d="M360.152,198.712s-30.127-6.957-36.452-5.807l18.226,11.211,31.335,2.76Z" transform="translate(-137.59 -81.941)"/><path class="g" d="M432,188.9l12.189,18.858,16.328,5.634-14.259-22.25Z" transform="translate(-183.624 -80.293)"/><path class="h" d="M697.9,392.7l19.548,3.737s-2.932,21.675-3.795,25.47L692.5,417.883S696.64,401.5,697.9,392.7Z" transform="translate(-294.35 -166.919)"/><path class="i" d="M186.5,55l21.33,18.4-14.374-6.324S190.467,64.717,186.5,55Z" transform="translate(-79.273 -23.378)"/><path class="j" d="M830.9,534.1l12.936,19.433-3.68,6.727S831.647,547.324,830.9,534.1Z" transform="translate(-353.178 -227.022)"/><path class="k" d="M308.137,179.736a135.652,135.652,0,0,1,15.983,1.61V170.652L304.4,164.5S307.1,168.295,308.137,179.736Z" transform="translate(-129.387 -69.921)"/><path class="l" d="M278.752,100.142,274.9,92.322S285.536,91,289.1,91l2.817,11.384Z" transform="translate(-116.847 -38.68)"/><path class="m" d="M295.9,140.2l15.983,11.5v5.979l-10.924-3.22Z" transform="translate(-125.774 -59.593)"/><path class="n" d="M351.7,691.175s9.487-11.269,24.32-5.347,31.45,32.657,45.076,28.46c0,0-48.64,10.694-53.987-7.7S351.7,691.175,351.7,691.175Z" transform="translate(-149.492 -290.783)"/><path class="n" d="M351.7,664.448s6.439-19.318,25.7-15.7S401.72,638,401.72,638s.69,27.137-18.571,22.883S351.7,664.448,351.7,664.448Z" transform="translate(-149.492 -271.185)"/><path class="n" d="M359.2,877.721s23.63-7.359,32.369,6.152,0,17.191,16.156,20.871c0,0-18.686,7.359-24.9-11.039S359.2,877.721,359.2,877.721Z" transform="translate(-152.68 -372.229)"/><path class="n" d="M355.8,889.4s17.421,1.552,18.743,14.719,13.569,20.928,13.569,20.928-24.148,4.14-25.643-11.614S355.8,889.4,355.8,889.4Z" transform="translate(-151.234 -378.043)"/><path class="n" d="M74.139,492.212s-7.589-15.466-33.232,4.715,7.474,3.047-8.854,45.191c0,0,23.113-13.914,21.675-24.723S74.139,492.212,74.139,492.212Z" transform="translate(-13.08 -206.809)"/><path class="n" d="M60.581,452.525s-5.289-18.916-17.651-18.858S5.386,422.8,5.386,422.8s-1.667,20.3,26.735,25.01Z" transform="translate(-2.282 -179.713)"/><path class="n" d="M106.7,474.938s9.2-10.924,23.573-5.174,30.472,31.622,43.7,27.6c0,0-47.146,10.349-52.32-7.474S106.7,474.938,106.7,474.938Z" transform="translate(-45.353 -198.965)"/></g></g></svg>