<?xml version="1.0" encoding="UTF-8" standalone="no"?><!DOCTYPE svg PUBLIC "-//W3C//DTD SVG 1.1//EN" "http://www.w3.org/Graphics/SVG/1.1/DTD/svg11.dtd"><svg width="100%" height="100%" viewBox="0 0 380 380" version="1.1" xmlns="http://www.w3.org/2000/svg" xmlns:xlink="http://www.w3.org/1999/xlink" xml:space="preserve" xmlns:serif="http://www.serif.com/" style="fill-rule:evenodd;clip-rule:evenodd;stroke-linejoin:round;stroke-miterlimit:2;"><path id="Ebene_1-2" d="M281.622,118.103l-21.834,13.575c0.091,0.114 0.174,0.232 0.25,0.356c1.096,1.761 0.548,4.11 -1.214,5.206c-1.761,1.095 -4.111,0.547 -5.206,-1.215c-0.076,-0.123 -0.146,-0.25 -0.208,-0.381l-3.855,2.397c1.095,1.761 0.547,4.111 -1.214,5.206c-1.762,1.095 -4.111,0.547 -5.206,-1.214l-3.211,1.996c1.096,1.761 0.548,4.11 -1.214,5.206c-1.761,1.095 -4.111,0.547 -5.206,-1.215l-3.872,2.408c0.97,1.756 0.387,3.992 -1.316,5.052c-1.704,1.059 -3.968,0.592 -5.113,-1.055l-3.847,2.392l0.053,0.085c1.062,1.759 0.504,4.079 -1.241,5.164c-1.761,1.095 -4.111,0.547 -5.206,-1.215l-0.026,-0.042l-3.856,2.397c1.095,1.761 0.547,4.111 -1.214,5.206c-1.761,1.095 -4.111,0.547 -5.206,-1.214l-3.855,2.397c1.095,1.761 0.547,4.111 -1.215,5.206c-1.761,1.095 -4.111,0.547 -5.206,-1.214l-3.21,1.996c1.095,1.761 0.547,4.111 -1.214,5.206c-1.761,1.095 -4.111,0.547 -5.206,-1.214l-3.855,2.397c0.078,0.108 0.149,0.221 0.211,0.34c0.844,1.732 0.235,3.847 -1.402,4.866c-1.762,1.095 -4.112,0.546 -5.206,-1.215l-0.007,-0.01l-20.577,12.794l-17.952,-28.874l-3.813,2.371l19.161,30.819l-123.584,73.307c0,0 -4.546,2.802 5.835,19.498c10.381,16.696 13.273,11.33 13.273,11.33c0,0 109.73,-72.676 120.073,-74.656l12.377,19.906l4.518,-2.809l-11.975,-19.261l142.526,-88.617c0,0 30.98,-17.484 40.589,-49.281c0,0 -37.937,12.012 -71.324,25.623Zm36.792,6.562l-12.739,7.921c-2.329,1.448 -5.437,0.723 -6.886,-1.606c-1.448,-2.33 -0.723,-5.438 1.606,-6.887l12.739,-7.92c2.329,-1.448 5.438,-0.723 6.886,1.606c1.448,2.33 0.723,5.438 -1.606,6.886Z" style="fill:#fff;fill-rule:nonzero;"/></svg>