<svg xmlns="http://www.w3.org/2000/svg" viewBox="0 0 380.32 93"><defs><style>.cls-1{fill:#5da478;}</style></defs><title>Messer</title><g id="Ebene_2" data-name="Ebene 2"><g id="Ebene_1-2" data-name="Ebene 1"><path class="cls-1" d="M306.22,34H280.51A3.78,3.78,0,1,1,273,34h-4.54a3.78,3.78,0,0,1-7.56,0h-3.78a3.78,3.78,0,0,1-7.56,0H245a3.79,3.79,0,0,1-7.57,0h-4.53v.1a3.78,3.78,0,0,1-7.56-.1h-4.54a3.78,3.78,0,0,1-7.56,0h-4.54a3.78,3.78,0,0,1-7.56,0h-3.78a3.78,3.78,0,1,1-7.56,0h-4.54a2.75,2.75,0,0,1,0,.4,3.78,3.78,0,0,1-7.54-.4H153.49V0H149V36.29l-143.66-3S0,33.27,0,52.93,5.29,69.56,5.29,69.56s131.56-3.78,141.39,0V93H152V70.32H319.83s35.54,1.51,60.49-20.42C380.32,49.9,341.76,40.07,306.22,34ZM334,59H319a5,5,0,0,1,0-10h15a5,5,0,0,1,0,10Z"/></g></g></svg>