<?xml version="1.0" encoding="UTF-8" standalone="no"?>
<!DOCTYPE svg PUBLIC "-//W3C//DTD SVG 1.1//EN" "http://www.w3.org/Graphics/SVG/1.1/DTD/svg11.dtd">
<svg width="100%" height="100%" viewBox="0 0 1585 388" version="1.1" xmlns="http://www.w3.org/2000/svg" xmlns:xlink="http://www.w3.org/1999/xlink" xml:space="preserve" xmlns:serif="http://www.serif.com/" style="fill-rule:evenodd;clip-rule:evenodd;stroke-linejoin:round;stroke-miterlimit:2;">
    <g transform="matrix(4.16667,0,0,4.16667,0,0)">
        <path id="Ebene_1-2" d="M306.22,34L280.51,34C280.527,34.144 280.535,34.289 280.535,34.434C280.535,36.508 278.829,38.214 276.755,38.214C274.681,38.214 272.975,36.508 272.975,34.434C272.975,34.289 272.983,34.144 273,34L268.46,34C268.46,36.074 266.754,37.78 264.68,37.78C262.606,37.78 260.9,36.074 260.9,34L257.12,34C257.12,36.074 255.414,37.78 253.34,37.78C251.266,37.78 249.56,36.074 249.56,34L245,34C244.897,36.003 243.221,37.595 241.215,37.595C239.209,37.595 237.533,36.003 237.43,34L232.9,34L232.9,34.1C232.873,36.155 231.175,37.83 229.12,37.83C227.046,37.83 225.34,36.124 225.34,34.05C225.34,34.033 225.34,34.017 225.34,34L220.8,34C220.8,36.074 219.094,37.78 217.02,37.78C214.946,37.78 213.24,36.074 213.24,34L208.7,34C208.7,36.074 206.994,37.78 204.92,37.78C202.846,37.78 201.14,36.074 201.14,34L197.36,34C197.36,36.074 195.654,37.78 193.58,37.78C191.506,37.78 189.8,36.074 189.8,34C189.8,34 185.26,34 185.26,34C185.27,34.133 185.27,34.267 185.26,34.4C185.062,36.317 183.428,37.792 181.5,37.792C179.426,37.792 177.72,36.085 177.72,34.012C177.72,34.008 177.72,34.004 177.72,34L153.49,34L153.49,0L149,0L149,36.29L5.34,33.29C5.34,33.29 0,33.27 0,52.93C0,72.59 5.29,69.56 5.29,69.56C5.29,69.56 136.85,65.78 146.68,69.56L146.68,93L152,93L152,70.32L319.83,70.32C319.83,70.32 355.37,71.83 380.32,49.9C380.32,49.9 341.76,40.07 306.22,34ZM334,59L319,59C316.257,59 314,56.743 314,54C314,51.257 316.257,49 319,49L334,49C336.743,49 339,51.257 339,54C339,56.743 336.743,59 334,59Z" style="fill:white;fill-rule:nonzero;"/>
    </g>
</svg>
