<?xml version="1.0" encoding="UTF-8" standalone="no"?><!DOCTYPE svg PUBLIC "-//W3C//DTD SVG 1.1//EN" "http://www.w3.org/Graphics/SVG/1.1/DTD/svg11.dtd"><svg width="100%" height="100%" viewBox="0 0 381 93" version="1.1" xmlns="http://www.w3.org/2000/svg" xmlns:xlink="http://www.w3.org/1999/xlink" xml:space="preserve" xmlns:serif="http://www.serif.com/" style="fill-rule:evenodd;clip-rule:evenodd;stroke-linejoin:round;stroke-miterlimit:2;"><path id="Ebene_1-2" d="M306.22,34l-25.71,0c0.017,0.144 0.025,0.289 0.025,0.434c0,2.074 -1.706,3.78 -3.78,3.78c-2.074,0 -3.78,-1.706 -3.78,-3.78c0,-0.145 0.008,-0.29 0.025,-0.434l-4.54,0c0,2.074 -1.706,3.78 -3.78,3.78c-2.074,0 -3.78,-1.706 -3.78,-3.78l-3.78,0c0,2.074 -1.706,3.78 -3.78,3.78c-2.074,0 -3.78,-1.706 -3.78,-3.78l-4.56,0c-0.103,2.003 -1.779,3.595 -3.785,3.595c-2.006,0 -3.682,-1.592 -3.785,-3.595l-4.53,0l0,0.1c-0.027,2.055 -1.725,3.73 -3.78,3.73c-2.074,0 -3.78,-1.706 -3.78,-3.78c0,-0.017 0,-0.033 0,-0.05l-4.54,0c0,2.074 -1.706,3.78 -3.78,3.78c-2.074,0 -3.78,-1.706 -3.78,-3.78l-4.54,0c0,2.074 -1.706,3.78 -3.78,3.78c-2.074,0 -3.78,-1.706 -3.78,-3.78l-3.78,0c0,2.074 -1.706,3.78 -3.78,3.78c-2.074,0 -3.78,-1.706 -3.78,-3.78c0,0 -4.54,0 -4.54,0c0.01,0.133 0.01,0.267 0,0.4c-0.198,1.917 -1.832,3.392 -3.76,3.392c-2.074,0 -3.78,-1.707 -3.78,-3.78c0,-0.004 0,-0.008 0,-0.012l-24.23,0l0,-34l-4.49,0l0,36.29l-143.66,-3c0,0 -5.34,-0.02 -5.34,19.64c0,19.66 5.29,16.63 5.29,16.63c0,0 131.56,-3.78 141.39,0l0,23.44l5.32,0l0,-22.68l167.83,0c0,0 35.54,1.51 60.49,-20.42c0,0 -38.56,-9.83 -74.1,-15.9Zm27.78,25l-15,0c-2.743,0 -5,-2.257 -5,-5c0,-2.743 2.257,-5 5,-5l15,0c2.743,0 5,2.257 5,5c0,2.743 -2.257,5 -5,5Z" style="fill:#5da57a;fill-rule:nonzero;"/></svg>