<?xml version="1.0" encoding="UTF-8" standalone="no"?><!DOCTYPE svg PUBLIC "-//W3C//DTD SVG 1.1//EN" "http://www.w3.org/Graphics/SVG/1.1/DTD/svg11.dtd"><svg width="100%" height="100%" viewBox="0 0 473 473" version="1.1" xmlns="http://www.w3.org/2000/svg" xmlns:xlink="http://www.w3.org/1999/xlink" xml:space="preserve" xmlns:serif="http://www.serif.com/" style="fill-rule:evenodd;clip-rule:evenodd;stroke-linejoin:round;stroke-miterlimit:2;"><g id="Ebene_1-2"><path d="M43.761,284.134c0,0 16.248,-13.54 38.815,9.929c0,0 22.566,23.47 25.274,24.372c0,0 -18.053,13.54 -40.62,-10.832l-23.469,-23.469Z" style="fill:#fff;fill-rule:nonzero;"/><path d="M43.761,284.134c0,0 16.248,-13.54 38.815,9.929c0,0 22.566,23.47 25.274,24.372c0,0 -18.053,13.54 -40.62,-10.832l-23.469,-23.469Z" style="fill:#fff;fill-rule:nonzero;"/><path d="M43.761,284.134c0,0 16.248,-13.54 38.815,9.929c0,0 22.566,23.47 25.274,24.372c0,0 -18.053,13.54 -40.62,-10.832l-23.469,-23.469Z" style="fill:#fff;fill-rule:nonzero;"/><path d="M156.594,284.134c0,0 16.248,-13.54 38.814,9.929c0,0 22.567,23.47 25.275,24.372c0,0 -18.054,13.54 -40.62,-10.832l-23.469,-23.469Z" style="fill:#fff;fill-rule:nonzero;"/><path d="M118.682,284.134c0,0 16.248,-13.54 38.814,9.929c0,0 22.567,23.47 25.275,24.372c0,0 -18.053,13.54 -40.62,-10.832l-23.469,-23.469Z" style="fill:#fff;fill-rule:nonzero;"/><path d="M81.673,284.134c0,0 16.248,-13.54 38.814,9.929c0,0 22.567,23.47 25.275,24.372c0,0 -18.053,13.54 -40.62,-10.832l-23.469,-23.469Z" style="fill:#fff;fill-rule:nonzero;"/><path d="M198.116,284.134c0,0 16.248,-13.54 38.814,9.929c0,0 22.567,23.47 25.275,24.372c0,0 -18.053,13.54 -40.62,-10.832l-23.469,-23.469Z" style="fill:#fff;fill-rule:nonzero;"/><path d="M198.116,284.134c0,0 16.248,-13.54 38.814,9.929c0,0 22.567,23.47 25.275,24.372c0,0 -18.053,13.54 -40.62,-10.832l-23.469,-23.469Z" style="fill:#fff;fill-rule:nonzero;"/><path d="M195.408,284.134c0,0 16.248,-13.54 38.814,9.929c0,0 22.567,23.47 25.275,24.372c0,0 -18.053,13.54 -40.62,-10.832l-23.469,-23.469Z" style="fill:#fff;fill-rule:nonzero;"/><path d="M310.949,284.134c0,0 16.247,-13.54 38.814,9.929c0,0 22.566,23.47 25.274,24.372c0,0 -18.053,13.54 -40.619,-10.832l-23.469,-23.469Z" style="fill:#fff;fill-rule:nonzero;"/><path d="M347.958,284.134c0,0 16.247,-13.54 38.814,9.929c0,0 22.566,23.47 25.274,24.372c0,0 -18.053,13.54 -40.619,-10.832l-23.469,-23.469Z" style="fill:#fff;fill-rule:nonzero;"/><path d="M273.037,284.134c0,0 16.248,-13.54 38.814,9.929c0,0 22.567,23.47 25.275,24.372c0,0 -18.054,13.54 -40.62,-10.832l-23.469,-23.469Z" style="fill:#fff;fill-rule:nonzero;"/><path d="M236.028,284.134c0,0 16.248,-13.54 38.814,9.929c0,0 22.567,23.47 25.275,24.372c0,0 -18.054,13.54 -40.62,-10.832l-23.469,-23.469Z" style="fill:#fff;fill-rule:nonzero;"/><path d="M354.276,188.326c0,0 -16.248,13.54 -38.814,-9.929c0,0 -22.567,-23.47 -25.275,-24.372c0,0 18.054,-13.54 40.62,10.832l23.469,23.469Z" style="fill:#fff;fill-rule:nonzero;"/><path d="M384.967,201.089c0,0 -2.708,6.193 -25.275,-17.276c0,0 -22.566,-23.47 -25.274,-24.372c0,0 18.053,-13.54 40.619,10.832l9.93,30.816Z" style="fill:#fff;fill-rule:nonzero;"/><path d="M400.176,227.42c0,0 -6.02,3.042 -8.494,-29.418c0,0 -2.473,-32.495 -3.989,-34.887c0,0 22.566,1.047 24.444,34.201l-11.961,30.104Z" style="fill:#fff;fill-rule:nonzero;"/><path d="M398.552,251.241c0,0 -6.671,-1.074 10.407,-28.795c0,0 17.079,-27.72 17.277,-30.564c0,0 17.629,14.091 -0.325,42.037l-27.359,17.322Z" style="fill:#fff;fill-rule:nonzero;"/><path d="M394.21,268.744c0,0 -5.136,-4.369 23.83,-19.227c0,0 28.975,-14.858 30.618,-17.15c0,0 7.772,21.185 -22.07,35.781l-32.378,0.596Z" style="fill:#fff;fill-rule:nonzero;"/><path d="M379.262,278.222c0,0 -1.751,-6.526 30.528,-2.311c0,0 32.288,4.215 34.969,3.231c0,0 -5.633,21.854 -38.481,16.934l-27.016,-17.854Z" style="fill:#fff;fill-rule:nonzero;"/><path d="M238.736,188.326c0,0 -16.248,13.54 -38.815,-9.929c0,0 -22.566,-23.47 -25.274,-24.372c0,0 18.053,-13.54 40.62,10.832l23.469,23.469Z" style="fill:#fff;fill-rule:nonzero;"/><path d="M279.355,188.326c0,0 -16.247,13.54 -38.814,-9.929c0,0 -22.566,-23.47 -25.274,-24.372c0,0 18.053,-13.54 40.619,10.832l23.469,23.469Z" style="fill:#fff;fill-rule:nonzero;"/><path d="M316.364,188.326c0,0 -16.247,13.54 -38.814,-9.929c0,0 -22.566,-23.47 -25.274,-24.372c0,0 18.053,-13.54 40.619,10.832l23.469,23.469Z" style="fill:#fff;fill-rule:nonzero;"/><path d="M199.921,188.326c0,0 -16.248,13.54 -38.814,-9.929c0,0 -22.567,-23.47 -25.275,-24.372c0,0 18.054,-13.54 40.62,10.832l23.469,23.469Z" style="fill:#fff;fill-rule:nonzero;"/><path d="M199.921,188.326c0,0 -16.248,13.54 -38.814,-9.929c0,0 -22.567,-23.47 -25.275,-24.372c0,0 18.054,-13.54 40.62,10.832l23.469,23.469Z" style="fill:#fff;fill-rule:nonzero;"/><path d="M199.921,188.326c0,0 -16.248,13.54 -38.814,-9.929c0,0 -22.567,-23.47 -25.275,-24.372c0,0 18.054,-13.54 40.62,10.832l23.469,23.469Z" style="fill:#fff;fill-rule:nonzero;"/><path d="M87.089,188.326c0,0 -16.248,13.54 -38.815,-9.929c0,0 -22.566,-23.47 -25.274,-24.372c0,0 18.053,-13.54 40.62,10.832l23.469,23.469Z" style="fill:#fff;fill-rule:nonzero;"/><path d="M125.001,188.326c0,0 -16.248,13.54 -38.815,-9.929c0,0 -22.566,-23.47 -25.274,-24.372c0,0 18.053,-13.54 40.619,10.832l23.47,23.469Z" style="fill:#fff;fill-rule:nonzero;"/><path d="M162.01,188.326c0,0 -16.248,13.54 -38.815,-9.929c0,0 -22.566,-23.47 -25.274,-24.372c0,0 18.053,-13.54 40.619,10.832l23.47,23.469Z" style="fill:#fff;fill-rule:nonzero;"/></g></svg>