<svg xmlns="http://www.w3.org/2000/svg" viewBox="0 0 472.57 190.46"><defs><style>.cls-1{fill:#5da478;}</style></defs><title>Seil</title><g id="Ebene_2" data-name="Ebene 2"><g id="Ebene_1-2" data-name="Ebene 1"><path class="cls-1" d="M23,148.3s18-15,43,11c0,0,25,26,28,27,0,0-20,15-45-12Z"/><path class="cls-1" d="M23,148.3s18-15,43,11c0,0,25,26,28,27,0,0-20,15-45-12Z"/><path class="cls-1" d="M23,148.3s18-15,43,11c0,0,25,26,28,27,0,0-20,15-45-12Z"/><path class="cls-1" d="M148,148.3s18-15,43,11c0,0,25,26,28,27,0,0-20,15-45-12Z"/><path class="cls-1" d="M106,148.3s18-15,43,11c0,0,25,26,28,27,0,0-20,15-45-12Z"/><path class="cls-1" d="M65,148.3s18-15,43,11c0,0,25,26,28,27,0,0-20,15-45-12Z"/><path class="cls-1" d="M194,148.3s18-15,43,11c0,0,25,26,28,27,0,0-20,15-45-12Z"/><path class="cls-1" d="M194,148.3s18-15,43,11c0,0,25,26,28,27,0,0-20,15-45-12Z"/><path class="cls-1" d="M191,148.3s18-15,43,11c0,0,25,26,28,27,0,0-20,15-45-12Z"/><path class="cls-1" d="M319,148.3s18-15,43,11c0,0,25,26,28,27,0,0-20,15-45-12Z"/><path class="cls-1" d="M360,148.3s18-15,43,11c0,0,25,26,28,27,0,0-20,15-45-12Z"/><path class="cls-1" d="M277,148.3s18-15,43,11c0,0,25,26,28,27,0,0-20,15-45-12Z"/><path class="cls-1" d="M236,148.3s18-15,43,11c0,0,25,26,28,27,0,0-20,15-45-12Z"/><path class="cls-1" d="M367,42.16s-18,15-43-11c0,0-25-26-28-27,0,0,20-15,45,12Z"/><path class="cls-1" d="M401,56.3s-3,6.86-28-19.14c0,0-25-26-28-27,0,0,20-15,45,12Z"/><path class="cls-1" d="M417.85,85.47s-6.67,3.37-9.41-32.59c0,0-2.74-36-4.42-38.65,0,0,25,1.16,27.08,37.89Z"/><path class="cls-1" d="M416.05,111.86s-7.39-1.19,11.53-31.9c0,0,18.92-30.71,19.14-33.86,0,0,19.53,15.61-.36,46.57Z"/><path class="cls-1" d="M411.24,131.25s-5.69-4.84,26.4-21.3c0,0,32.1-16.46,33.92-19,0,0,8.61,23.47-24.45,39.64Z"/><path class="cls-1" d="M394.68,141.75s-1.94-7.23,33.82-2.56c0,0,35.77,4.67,38.74,3.58,0,0-6.24,24.21-42.63,18.76Z"/><path class="cls-1" d="M239,42.16s-18,15-43-11c0,0-25-26-28-27,0,0,20-15,45,12Z"/><path class="cls-1" d="M284,42.16s-18,15-43-11c0,0-25-26-28-27,0,0,20-15,45,12Z"/><path class="cls-1" d="M325,42.16s-18,15-43-11c0,0-25-26-28-27,0,0,20-15,45,12Z"/><path class="cls-1" d="M196,42.16s-18,15-43-11c0,0-25-26-28-27,0,0,20-15,45,12Z"/><path class="cls-1" d="M196,42.16s-18,15-43-11c0,0-25-26-28-27,0,0,20-15,45,12Z"/><path class="cls-1" d="M196,42.16s-18,15-43-11c0,0-25-26-28-27,0,0,20-15,45,12Z"/><path class="cls-1" d="M71,42.16s-18,15-43-11c0,0-25-26-28-27,0,0,20-15,45,12Z"/><path class="cls-1" d="M113,42.16s-18,15-43-11c0,0-25-26-28-27,0,0,20-15,45,12Z"/><path class="cls-1" d="M154,42.16s-18,15-43-11c0,0-25-26-28-27,0,0,20-15,45,12Z"/></g></g></svg>