<?xml version="1.0" encoding="UTF-8" standalone="no"?>
<!DOCTYPE svg PUBLIC "-//W3C//DTD SVG 1.1//EN" "http://www.w3.org/Graphics/SVG/1.1/DTD/svg11.dtd">
<svg width="100%" height="100%" viewBox="0 0 1970 794" version="1.1" xmlns="http://www.w3.org/2000/svg" xmlns:xlink="http://www.w3.org/1999/xlink" xml:space="preserve" xmlns:serif="http://www.serif.com/" style="fill-rule:evenodd;clip-rule:evenodd;stroke-linejoin:round;stroke-miterlimit:2;">
    <g transform="matrix(4.16667,0,0,4.16667,0,0)">
        <g id="Ebene_1-2">
            <path d="M23,148.3C23,148.3 41,133.3 66,159.3C66,159.3 91,185.3 94,186.3C94,186.3 74,201.3 49,174.3L23,148.3Z" style="fill:white;fill-rule:nonzero;"/>
            <path d="M23,148.3C23,148.3 41,133.3 66,159.3C66,159.3 91,185.3 94,186.3C94,186.3 74,201.3 49,174.3L23,148.3Z" style="fill:white;fill-rule:nonzero;"/>
            <path d="M23,148.3C23,148.3 41,133.3 66,159.3C66,159.3 91,185.3 94,186.3C94,186.3 74,201.3 49,174.3L23,148.3Z" style="fill:white;fill-rule:nonzero;"/>
            <path d="M148,148.3C148,148.3 166,133.3 191,159.3C191,159.3 216,185.3 219,186.3C219,186.3 199,201.3 174,174.3L148,148.3Z" style="fill:white;fill-rule:nonzero;"/>
            <path d="M106,148.3C106,148.3 124,133.3 149,159.3C149,159.3 174,185.3 177,186.3C177,186.3 157,201.3 132,174.3L106,148.3Z" style="fill:white;fill-rule:nonzero;"/>
            <path d="M65,148.3C65,148.3 83,133.3 108,159.3C108,159.3 133,185.3 136,186.3C136,186.3 116,201.3 91,174.3L65,148.3Z" style="fill:white;fill-rule:nonzero;"/>
            <path d="M194,148.3C194,148.3 212,133.3 237,159.3C237,159.3 262,185.3 265,186.3C265,186.3 245,201.3 220,174.3L194,148.3Z" style="fill:white;fill-rule:nonzero;"/>
            <path d="M194,148.3C194,148.3 212,133.3 237,159.3C237,159.3 237.479,159.798 238.312,160.659C243.5,166.019 262.415,185.438 265,186.3C265,186.3 245,201.3 220,174.3L194,148.3Z" style="fill:white;fill-rule:nonzero;"/>
            <path d="M191,148.3C191,148.3 209,133.3 234,159.3C234,159.3 240.952,166.53 247.964,173.512C254.249,179.77 260.582,185.827 262,186.3C262,186.3 242,201.3 217,174.3L191,148.3Z" style="fill:white;fill-rule:nonzero;"/>
            <path d="M319,148.3C319,148.3 337,133.3 362,159.3C362,159.3 387,185.3 390,186.3C390,186.3 370,201.3 345,174.3L319,148.3Z" style="fill:white;fill-rule:nonzero;"/>
            <path d="M360,148.3C360,148.3 378,133.3 403,159.3C403,159.3 428,185.3 431,186.3C431,186.3 411,201.3 386,174.3L360,148.3Z" style="fill:white;fill-rule:nonzero;"/>
            <path d="M277,148.3C277,148.3 295,133.3 320,159.3C320,159.3 345,185.3 348,186.3C348,186.3 328,201.3 303,174.3L277,148.3Z" style="fill:white;fill-rule:nonzero;"/>
            <path d="M236,148.3C236,148.3 254,133.3 279,159.3C279,159.3 304,185.3 307,186.3C307,186.3 287,201.3 262,174.3L236,148.3Z" style="fill:white;fill-rule:nonzero;"/>
            <path d="M367,42.16C367,42.16 349,57.16 324,31.16C324,31.16 299,5.16 296,4.16C296,4.16 316,-10.84 341,16.16L367,42.16Z" style="fill:white;fill-rule:nonzero;"/>
            <path d="M401,56.3C401,56.3 398,63.16 373,37.16C373,37.16 348,11.16 345,10.16C345,10.16 365,-4.84 390,22.16L401,56.3Z" style="fill:white;fill-rule:nonzero;"/>
            <path d="M417.85,85.47C417.85,85.47 411.18,88.84 408.44,52.88C408.44,52.88 405.7,16.88 404.02,14.23C404.02,14.23 429.02,15.39 431.1,52.12L417.85,85.47Z" style="fill:white;fill-rule:nonzero;"/>
            <path d="M416.05,111.86C416.05,111.86 408.66,110.67 427.58,79.96C427.58,79.96 446.5,49.25 446.72,46.1C446.72,46.1 466.25,61.71 446.36,92.67L416.05,111.86Z" style="fill:white;fill-rule:nonzero;"/>
            <path d="M411.24,131.25C411.24,131.25 405.55,126.41 437.64,109.95C437.64,109.95 469.74,93.49 471.56,90.95C471.56,90.95 480.17,114.42 447.11,130.59L411.24,131.25Z" style="fill:white;fill-rule:nonzero;"/>
            <path d="M394.68,141.75C394.68,141.75 392.74,134.52 428.5,139.19C428.5,139.19 464.27,143.86 467.24,142.77C467.24,142.77 461,166.98 424.61,161.53L394.68,141.75Z" style="fill:white;fill-rule:nonzero;"/>
            <path d="M239,42.16C239,42.16 221,57.16 196,31.16C196,31.16 171,5.16 168,4.16C168,4.16 188,-10.84 213,16.16L239,42.16Z" style="fill:white;fill-rule:nonzero;"/>
            <path d="M284,42.16C284,42.16 266,57.16 241,31.16C241,31.16 216,5.16 213,4.16C213,4.16 233,-10.84 258,16.16L284,42.16Z" style="fill:white;fill-rule:nonzero;"/>
            <path d="M325,42.16C325,42.16 307,57.16 282,31.16C282,31.16 257,5.16 254,4.16C254,4.16 274,-10.84 299,16.16L325,42.16Z" style="fill:white;fill-rule:nonzero;"/>
            <path d="M196,42.16C196,42.16 178,57.16 153,31.16C153,31.16 128,5.16 125,4.16C125,4.16 145,-10.84 170,16.16L196,42.16Z" style="fill:white;fill-rule:nonzero;"/>
            <path d="M196,42.16C196,42.16 178,57.16 153,31.16C153,31.16 128,5.16 125,4.16C125,4.16 145,-10.84 170,16.16L196,42.16Z" style="fill:white;fill-rule:nonzero;"/>
            <path d="M196,42.16C196,42.16 178,57.16 153,31.16C153,31.16 128,5.16 125,4.16C125,4.16 145,-10.84 170,16.16L196,42.16Z" style="fill:white;fill-rule:nonzero;"/>
            <path d="M71,42.16C71,42.16 53,57.16 28,31.16C28,31.16 3,5.16 0,4.16C0,4.16 20,-10.84 45,16.16L71,42.16Z" style="fill:white;fill-rule:nonzero;"/>
            <path d="M113,42.16C113,42.16 95,57.16 70,31.16C70,31.16 45,5.16 42,4.16C42,4.16 62,-10.84 87,16.16L113,42.16Z" style="fill:white;fill-rule:nonzero;"/>
            <path d="M154,42.16C154,42.16 136,57.16 111,31.16C111,31.16 86,5.16 83,4.16C83,4.16 103,-10.84 128,16.16L154,42.16Z" style="fill:white;fill-rule:nonzero;"/>
        </g>
    </g>
</svg>
