<svg xmlns="http://www.w3.org/2000/svg" width="290" height="182" viewBox="0 0 290 182"><g transform="translate(-43 -112)"><g transform="translate(43 112)" fill="none" stroke="#fff" stroke-width="2"><rect width="290" height="182" stroke="none"/><rect x="1" y="1" width="288" height="180" fill="none"/></g><g transform="translate(126.424 187.737)"><path d="M100.348,12.476h-8.3a1.227,1.227,0,1,1-2.453,0H88.145a1.227,1.227,0,0,1-2.453,0H84.465a1.227,1.227,0,1,1-2.453,0H80.559a1.227,1.227,0,1,1-2.453,0H76.653a1.227,1.227,0,0,1-2.453-.032H72.747a1.227,1.227,0,0,1-2.453,0H68.84a1.227,1.227,0,1,1-2.453,0H65.16a1.227,1.227,0,1,1-2.453,0H61.254a.872.872,0,0,1,0,.129,1.227,1.227,0,0,1-2.421-.129h-7.78V1.5H49.6V13.218L3.211,12.25s-1.711,0-1.711,6.36,1.711,5.359,1.711,5.359,42.483-1.227,45.647,0v7.554h1.711V24.194h54.169s11.46.484,19.531-6.586C124.269,17.609,111.84,14.445,100.348,12.476Zm8.974,8.071H104.48a1.614,1.614,0,0,1,0-3.228h4.842a1.614,1.614,0,0,1,0,3.228Z" transform="translate(-1.5 -1.5)" fill="none" stroke="#fff" stroke-miterlimit="10" stroke-width="0.847"/><path d="M235.5,99.5" transform="translate(-159.96 -67.864)" fill="#0a0403" stroke="#fff" stroke-miterlimit="10" stroke-width="1"/></g></g></svg>