<svg xmlns="http://www.w3.org/2000/svg" width="290" height="182" viewBox="0 0 290 182"><g transform="translate(-43 -112)"><g transform="translate(43 112)" fill="none" stroke="#fff" stroke-width="2"><rect width="290" height="182" stroke="none"/><rect x="1" y="1" width="288" height="180" fill="none"/></g><g transform="translate(184 242)" fill="none" stroke="#fff" stroke-width="1"><circle cx="3.5" cy="3.5" r="3.5" stroke="none"/><circle cx="3.5" cy="3.5" r="3" fill="none"/></g><g transform="translate(166 177)" fill="none" stroke="#fff" stroke-width="1"><rect width="42" height="76" rx="4" stroke="none"/><rect x="0.5" y="0.5" width="41" height="75" rx="3.5" fill="none"/></g><g transform="translate(186 205)" fill="rgba(255,255,255,0.46)" stroke="#fff" stroke-width="1"><circle cx="5" cy="5" r="5" stroke="none"/><circle cx="5" cy="5" r="4.5" fill="none"/></g><path d="M1547.028,451.837s13.542,5.208,13.542,6.667-13.542,8.192-13.542,9.167,13.542,7.117,13.542,8.542-13.542,6.856-13.542,7.917,13.542,8.12,13.542,9.375-13.542,8.334-13.542,8.334" transform="translate(1771.599 695.676) rotate(180)" fill="none" stroke="#fff" stroke-width="1"/><path d="M1547.028,451.837s13.542,5.208,13.542,6.667-13.542,8.192-13.542,9.167,13.542,7.117,13.542,8.542-13.542,6.856-13.542,7.917,13.542,8.12,13.542,9.375-13.542,8.334-13.542,8.334" transform="translate(-1397 -258)" fill="none" stroke="#fff" stroke-width="1"/></g></svg>