<?xml version="1.0" encoding="UTF-8" standalone="no"?><!DOCTYPE svg PUBLIC "-//W3C//DTD SVG 1.1//EN" "http://www.w3.org/Graphics/SVG/1.1/DTD/svg11.dtd"><svg width="100%" height="100%" viewBox="0 0 250 250" version="1.1" xmlns="http://www.w3.org/2000/svg" xmlns:xlink="http://www.w3.org/1999/xlink" xml:space="preserve" xmlns:serif="http://www.serif.com/" style="fill-rule:evenodd;clip-rule:evenodd;stroke-linejoin:round;stroke-miterlimit:2;"><path id="Ebene_1-2" d="M195.4,92.88c-7.92,2.816 -32.56,15.84 -32.56,15.84l-147.84,0l0,44.88l149.6,0c0,0 24.49,7.286 32.56,8.8c9.53,1.76 37.84,4.4 37.84,4.4l0,-83.6c0,0 -29.515,6.16 -39.6,9.68Zm-45.294,40.946c-0.822,0.826 -1.941,1.291 -3.106,1.294l-13.2,0c-2.414,0 -4.4,-1.986 -4.4,-4.4c0,-2.414 1.986,-4.4 4.4,-4.4l13.2,0c2.41,0.005 4.39,1.99 4.39,4.4c0,1.164 -0.462,2.282 -1.284,3.106Z" style="fill:#fff;fill-rule:nonzero;"/></svg>