<?xml version="1.0" encoding="UTF-8" standalone="no"?>
<!DOCTYPE svg PUBLIC "-//W3C//DTD SVG 1.1//EN" "http://www.w3.org/Graphics/SVG/1.1/DTD/svg11.dtd">
<svg width="100%" height="100%" viewBox="0 0 1042 396" version="1.1" xmlns="http://www.w3.org/2000/svg" xmlns:xlink="http://www.w3.org/1999/xlink" xml:space="preserve" xmlns:serif="http://www.serif.com/" style="fill-rule:evenodd;clip-rule:evenodd;stroke-linejoin:round;stroke-miterlimit:2;">
    <g transform="matrix(4.16667,0,0,4.16667,0,0)">
        <path id="Ebene_1-2" d="M205,11C196,14.2 168,29 168,29L0,29L0,80L170,80C170,80 197.83,88.28 207,90C217.83,92 250,95 250,95L250,0C250,0 216.46,7 205,11ZM153.53,57.53C152.595,58.468 151.324,58.997 150,59L135,59C132.257,59 130,56.743 130,54C130,51.257 132.257,49 135,49L150,49C152.739,49.006 154.989,51.261 154.989,54C154.989,55.323 154.464,56.593 153.53,57.53Z" style="fill:white;fill-rule:nonzero;"/>
    </g>
</svg>
